<?xml version="1.0" encoding="UTF-8"?>
<svg id="Camada_1" data-name="Camada 1" xmlns="http://www.w3.org/2000/svg" version="1.1" viewBox="0 0 300 300">
  <defs>
    <style>
      .cls-1 {
        fill: #1e857c;
      }

      .cls-1, .cls-2 {
        stroke-width: 0px;
      }

      .cls-2 {
        fill: #555151;
      }
    </style>
  </defs>
  <path class="cls-1" d="M122.5,150.62c-.52,25.4-20.94,44.95-46.49,44.5-24.47-.44-44.85-21.65-43.87-46.34,1.1-27.54,24.08-44.83,47.17-43.86,23.93,1.01,43.67,21.45,43.18,45.7ZM118.31,149.81c-.13-22.76-18.49-40.87-41.34-40.78-22.32.09-40.84,18.85-40.62,41.17.22,22.88,18.76,40.95,41.85,40.79,22.05-.16,40.25-18.84,40.12-41.18Z"/>
  <path class="cls-2" d="M136.58,162.91v-26.46c7.47,0,14.97-.72,22.27.21,6.58.84,9.38,5.71,9.31,12.8-.07,6.73-3.03,11.33-9.5,12.27-7.19,1.04-14.56.84-22.08,1.18ZM142.63,157.64c3.21,0,6.22.02,9.23,0,1.24-.01,2.51.02,3.72-.21,4.3-.8,6.56-3.71,6.56-8.28,0-4.39-2.18-7.71-6.15-8.1-4.34-.42-8.75-.1-13.36-.1v16.69Z"/>
  <path class="cls-2" d="M225.74,162.31c3.79-8.44,7.36-16.54,11.07-24.59,1.18-2.56,9.59-3,10.77-.49,3.9,8.25,7.56,16.61,11.34,24.99-4.04.97-6.91.74-8.38-3.72-.89-2.71-15.59-2.52-16.49.2-1.42,4.31-4.33,4.32-8.31,3.6ZM242.33,139.98c-1.98,4.46-3.53,7.97-5.17,11.67h10.45c-1.75-3.87-3.3-7.3-5.28-11.67Z"/>
  <path class="cls-2" d="M196.48,158.95v3.54c-6.16,0-12.25.37-18.27-.12-4.74-.38-7.5-4.48-7.45-9.53.05-5.28,2.99-8.98,8.04-9.43,4.27-.38,8.59-.34,12.88-.18,4.06.16,6,2.31,5.95,5.96-.05,3.61-2.02,5.61-6.18,5.78-4.67.18-9.34.04-14.1.72,5.53,5.07,12.56,1.36,19.13,3.26ZM177.13,148.74c.13.64.26,1.28.39,1.92,4.22,0,8.44.08,12.65-.08.66-.02,1.29-1.09,1.93-1.68-.7-.47-1.38-1.29-2.11-1.35-2.19-.19-4.43-.25-6.62-.04-2.1.2-4.17.8-6.25,1.23Z"/>
  <path class="cls-2" d="M224.5,143.81c-2.36,3.24-4.47,6.13-6.67,9.16,2.27,3.09,4.45,6.07,6.73,9.18-3.99,1.18-6.49.18-8.7-3.03-4.02-5.83-4.38-5.71-8.43-.28q-2.97,3.98-8.84,3.46c2.34-3.21,4.5-6.18,6.81-9.34-2.14-2.96-4.3-5.94-6.62-9.15,3.95-1.2,6.42-.24,8.61,3,3.89,5.75,4.48,5.75,8.35.11,2.2-3.21,4.65-4.4,8.75-3.11Z"/>
  <path class="cls-2" d="M262.43,135.94h5.45v26.37h-5.45v-26.37Z"/>
  <path class="cls-1" d="M40.93,156.79c6.81,0,13.59-.08,20.37.09.95.02,2.09,1.12,2.77,2,7.25,9.45,19.28,9.5,26.52.12.75-.97,2.05-2.09,3.12-2.12,6.64-.19,13.29-.1,19.94-.1-.46,15.39-17.65,30.3-35.17,30.78-18.4.5-36.03-13.79-37.55-30.77Z"/>
  <path class="cls-1" d="M40.94,143.31c1.32-17.08,18.88-31.16,37.93-30.71,17.27.4,34.4,15.37,34.78,30.71-6.65,0-13.31.1-19.95-.1-1.07-.03-2.36-1.2-3.1-2.18-7.22-9.42-19.3-9.37-26.57.1-.74.96-2.04,2.06-3.11,2.09-6.64.19-13.3.1-19.97.1ZM87.89,116.67c-.44.5-1.42,1.19-1.32,1.62.19.78.88,1.76,1.61,2.04,5.84,2.3,10.57,5.99,14.57,10.79.59.7,1.98.74,3,1.08-.17-1.11.06-2.71-.59-3.24-4.78-3.9-9.71-7.62-14.65-11.33-.63-.47-1.54-.58-2.61-.96Z"/>
  <path class="cls-1" d="M89.73,150.06c-.02,6.92-5.48,12.44-12.32,12.46-6.77.02-12.44-5.57-12.54-12.35-.1-6.97,5.62-12.68,12.64-12.62,6.88.06,12.24,5.55,12.22,12.52Z"/>
  <path class="cls-1" d="M61.32,153.24h-21.27c-.09-2.01-.18-3.97-.29-6.22h21.56v6.22Z"/>
  <path class="cls-1" d="M114.49,153.19h-21.11v-6.13h21.11v6.13Z"/>
</svg>